Coordinates
nRows=289
nColumns=2
inDegrees=yes
endheader
time	ankle_angle_r	
4.35758	  0.305118	
4.39085	  0.275320	
4.42411	  0.268693	
4.45738	  0.280977	
4.49064	  0.291647	
4.5239	  0.288145	
4.55717	  0.274109	
4.59043	  0.261390	
4.6237	  0.254035	
4.65696	  0.247087	
4.69022	  0.237744	
4.72349	  0.223460	
4.75675	  0.202140	
4.79002	  0.178366	
4.82328	  0.158746	
4.85654	  0.149567	
4.88981	  0.152646	
4.92307	  0.158723	
4.95634	  0.160622	
4.9896	  0.159954	
5.02286	  0.155156	
5.05613	  0.146866	
5.08939	  0.142036	
5.12266	  0.138747	
5.15592	  0.132419	
5.18918	  0.129316	
5.22245	  0.131823	
5.25571	  0.133873	
5.28898	  0.135523	
5.32224	  0.138103	
5.3555	  0.138982	
5.38877	  0.141758	
5.42203	  0.150445	
5.4553	  0.161817	
5.48856	  0.175459	
5.52182	  0.191154	
5.55509	  0.204021	
5.58835	  0.213821	
5.62162	  0.221347	
5.65488	  0.225844	
5.68814	  0.231879	
5.72141	  0.243072	
5.75467	  0.260223	
5.78794	  0.284128	
5.8212	  0.308864	
5.85446	  0.324897	
5.88773	  0.326806	
5.92099	  0.316382	
5.95426	  0.305770	
5.98752	  0.304594	
6.02078	  0.307875	
6.05405	  0.309524	
6.08731	  0.309596	
6.12058	  0.307025	
6.15384	  0.301893	
6.1871	  0.293371	
6.22037	  0.276388	
6.25363	  0.254742	
6.2869	  0.240827	
6.32016	  0.237619	
6.35342	  0.238729	
6.38669	  0.238646	
6.41995	  0.233839	
6.45322	  0.225721	
6.48648	  0.219578	
6.51974	  0.216542	
6.55301	  0.216414	
6.58627	  0.218102	
6.61954	  0.216122	
6.6528	  0.211437	
6.68606	  0.210806	
6.71933	  0.212089	
6.75259	  0.210017	
6.78586	  0.205986	
6.81912	  0.202626	
6.85238	  0.202044	
6.88565	  0.206459	
6.91891	  0.215833	
6.95218	  0.228472	
6.98544	  0.238055	
7.0187	  0.236788	
7.05197	  0.227663	
7.08523	  0.221040	
7.1185	  0.222652	
7.15176	  0.230457	
7.18502	  0.236744	
7.21829	  0.238601	
7.25155	  0.240864	
7.28482	  0.243177	
7.31808	  0.242755	
7.35134	  0.243598	
7.38461	  0.246331	
7.41787	  0.246357	
7.45114	  0.243844	
7.4844	  0.240496	
7.51766	  0.237636	
7.55093	  0.237448	
7.58419	  0.235127	
7.61746	  0.224549	
7.65072	  0.209936	
7.68398	  0.196519	
7.71725	  0.185311	
7.75051	  0.180040	
7.78378	  0.179206	
7.81704	  0.173509	
7.8503	  0.162253	
7.88357	  0.152336	
7.91683	  0.147851	
7.9501	  0.152004	
7.98336	  0.161036	
8.01662	  0.165171	
8.04989	  0.164869	
8.08315	  0.165368	
8.11642	  0.165350	
8.14968	  0.164825	
8.18294	  0.166676	
8.21621	  0.170619	
8.24947	  0.173516	
8.28274	  0.173207	
8.316	  0.173235	
8.34926	  0.177451	
8.38253	  0.183838	
8.41579	  0.191586	
8.44906	  0.202203	
8.48232	  0.216590	
8.51558	  0.237173	
8.54885	  0.261249	
8.58211	  0.280738	
8.61538	  0.294373	
8.64864	  0.303473	
8.6819	  0.304329	
8.71517	  0.299498	
8.74843	  0.298969	
8.7817	  0.306165	
8.81496	  0.317582	
8.84822	  0.327805	
8.88149	  0.332362	
8.91475	  0.334778	
8.94802	  0.339518	
8.98128	  0.341497	
9.01454	  0.337822	
9.04781	  0.331517	
9.08107	  0.318203	
9.11434	  0.293581	
9.1476	  0.265969	
9.18086	  0.244793	
9.21413	  0.232974	
9.24739	  0.229483	
9.28066	  0.226183	
9.31392	  0.216873	
9.34718	  0.206006	
9.38045	  0.197131	
9.41371	  0.189132	
9.44698	  0.182168	
9.48024	  0.178131	
9.5135	  0.179601	
9.54677	  0.183552	
9.58003	  0.181428	
9.6133	  0.170343	
9.64656	  0.155738	
9.67982	  0.147978	
9.71309	  0.153016	
9.74635	  0.160212	
9.77962	  0.156510	
9.81288	  0.146740	
9.84614	  0.141938	
9.87941	  0.144789	
9.91267	  0.152112	
9.94594	  0.158942	
9.9792	  0.166051	
10.0125	  0.177552	
10.0457	  0.187766	
10.079	  0.191770	
10.1123	  0.197413	
10.1455	  0.208049	
10.1788	  0.218457	
10.212	  0.227939	
10.2453	  0.234908	
10.2786	  0.236719	
10.3118	  0.237417	
10.3451	  0.237027	
10.3784	  0.233470	
10.4116	  0.235532	
10.4449	  0.246264	
10.4782	  0.254194	
10.5114	  0.255849	
10.5447	  0.258054	
10.578	  0.260667	
10.6112	  0.256216	
10.6445	  0.239329	
10.6777	  0.215097	
10.711	  0.196082	
10.7443	  0.188317	
10.7775	  0.190956	
10.8108	  0.200229	
10.8441	  0.208229	
10.8773	  0.212712	
10.9106	  0.218303	
10.9439	  0.224094	
10.9771	  0.226108	
11.0104	  0.223421	
11.0436	  0.217205	
11.0769	  0.212563	
11.1102	  0.212186	
11.1434	  0.212470	
11.1767	  0.214635	
11.21	  0.221766	
11.2432	  0.229829	
11.2765	  0.237802	
11.3098	  0.247797	
11.343	  0.255190	
11.3763	  0.257694	
11.4096	  0.259087	
11.4428	  0.259138	
11.4761	  0.257662	
11.5093	  0.259169	
11.5426	  0.265506	
11.5759	  0.275028	
11.6091	  0.282928	
11.6424	  0.283575	
11.6757	  0.282222	
11.7089	  0.288241	
11.7422	  0.299105	
11.7755	  0.306517	
11.8087	  0.303972	
11.842	  0.290784	
11.8752	  0.278233	
11.9085	  0.275703	
11.9418	  0.277315	
11.975	  0.273730	
12.0083	  0.263145	
12.0416	  0.250842	
12.0748	  0.243590	
12.1081	  0.239497	
12.1414	  0.230448	
12.1746	  0.215144	
12.2079	  0.197835	
12.2412	  0.181942	
12.2744	  0.169071	
12.3077	  0.155699	
12.3409	  0.141318	
12.3742	  0.133460	
12.4075	  0.131107	
12.4407	  0.127397	
12.474	  0.124984	
12.5073	  0.126117	
12.5405	  0.128597	
12.5738	  0.133354	
12.6071	  0.136683	
12.6403	  0.133228	
12.6736	  0.130194	
12.7068	  0.134910	
12.7401	  0.141611	
12.7734	  0.145289	
12.8066	  0.148709	
12.8399	  0.155839	
12.8732	  0.169308	
12.9064	  0.186049	
12.9397	  0.201089	
12.973	  0.216790	
13.0062	  0.233674	
13.0395	  0.244725	
13.0728	  0.246030	
13.106	  0.240537	
13.1393	  0.236659	
13.1725	  0.242707	
13.2058	  0.258816	
13.2391	  0.279364	
13.2723	  0.296115	
13.3056	  0.302440	
13.3389	  0.302346	
13.3721	  0.303245	
13.4054	  0.304077	
13.4387	  0.302346	
13.4719	  0.299364	
13.5052	  0.297393	
13.5384	  0.299556	
13.5717	  0.301338	
13.605	  0.292259	
13.6382	  0.276669	
13.6715	  0.266483	
13.7048	  0.258448	
13.738	  0.245409	
13.7713	  0.230315	
13.8046	  0.220308	
13.8378	  0.222269	
13.8711	  0.228912	
13.9044	  0.213846	
13.9376	  0.167999	
